<?xml version="1.0" standalone="no"?><!DOCTYPE svg PUBLIC "-//W3C//DTD SVG 1.1//EN" "http://www.w3.org/Graphics/SVG/1.1/DTD/svg11.dtd"><svg xmlns:xlink="http://www.w3.org/1999/xlink" xmlns="http://www.w3.org/2000/svg" version="1.1" width="64" height="64" viewBox="0 0 64 64"><defs><style type="text/css"><![CDATA[
@font-face {
  font-family: "ifont";
  src: url("//at.alicdn.com/t/font_1442373896_4754455.eot?#iefix") format("embedded-opentype"), url("//at.alicdn.com/t/font_1442373896_4754455.woff") format("woff"), url("//at.alicdn.com/t/font_1442373896_4754455.ttf") format("truetype"), url("//at.alicdn.com/t/font_1442373896_4754455.svg#ifont") format("svg");
}

]]></style></defs><g class="transform-group"><g transform="scale(0.0625, 0.0625)"><path d="M503.57248 887.36256c-205.568 0-372.8128-167.24992-372.8128-372.82304 0-205.54752 167.2448-372.77184 372.8128-372.77184 205.54752 0 372.77696 167.22432 372.77696 372.77184C876.34944 720.10752 709.12512 887.36256 503.57248 887.36256zM503.57248 146.85184c-202.76224 0-367.72352 164.9408-367.72352 367.68256 0 202.76736 164.96128 367.73376 367.72352 367.73376 202.74688 0 367.68768-164.9664 367.68768-367.73376C871.26528 311.79264 706.31936 146.85184 503.57248 146.85184zM616.65792 580.34688l-0.0512-253.71136c0-14.57152-24.08448-26.38336-53.8368-26.38336L458.24 300.25216c-29.7472 0-53.83168 11.81696-53.83168 26.38336l0 251.43296L307.08736 577.024c-0.11776 11.0592 3.97312 22.20032 12.34432 30.7456l151.5264 154.83904c16.75264 17.08032 44.14464 17.408 61.25056 0.65536l154.8288-151.52128c8.53504-8.37632 12.8768-19.41504 12.96896-30.5152L616.65792 580.34688z" fill="#56abe4"></path></g></g></svg>